<?xml version="1.0" encoding="UTF-8"?>
<svg id="_레이어_1" data-name=" 레이어 1" xmlns="http://www.w3.org/2000/svg" viewBox="0 0 50.69 41.2">
  <defs>
    <style>
      .cls-1 {
        fill: #fff;
      }
    </style>
  </defs>
  <path class="cls-1" d="m26.46,19.96c3.89-.81,7.11-4.32,7.11-9.46,0-5.5-4.01-10.5-11.86-10.5H0v41.2h22.39c7.92,0,12-4.94,12-11.18-.02-5.12-3.48-9.39-7.94-10.07ZM8.78,7.72h11c2.97,0,4.82,1.79,4.82,4.32,0,2.65-1.86,4.32-4.82,4.32h-11V7.72Zm11.37,25.76h-11.37v-9.39h11.38c3.4,0,5.25,2.1,5.25,4.69.02,2.95-1.97,4.69-5.25,4.69h0ZM45.19.07c-2.65,0-4.89,2.22-4.89,4.87s1.86,4.44,4.21,4.44c.5,0,.99-.05,1.18-.18-.5,2.22-2.78,4.82-4.77,5.88l3.4,2.78c3.82-2.7,6.36-6.84,6.36-11.48,0-4.01-2.6-6.3-5.5-6.3h0Z"/>
</svg>