<?xml version="1.0" encoding="UTF-8"?>
<svg id="_레이어_1" data-name="레이어 1" xmlns="http://www.w3.org/2000/svg" viewBox="0 0 51.47 50">
  <defs>
    <style>
      .cls-1 {
        fill: #fff;
        fill-rule: evenodd;
      }
    </style>
  </defs>
  <path class="cls-1" d="m25.73,0C11.52,0,0,11.47,0,25.63c0,11.34,7.37,20.92,17.6,24.32,1.29.22,1.77-.54,1.77-1.22,0-.61-.03-2.63-.03-4.77-6.47,1.19-8.14-1.57-8.65-3.01-.29-.74-1.54-3.01-2.64-3.62-.9-.48-2.19-1.67-.03-1.7,2.03-.03,3.47,1.86,3.96,2.63,2.32,3.88,6.02,2.79,7.5,2.11.23-1.67.9-2.79,1.64-3.43-5.73-.64-11.71-2.85-11.71-12.66,0-2.79,1-5.09,2.64-6.89-.26-.64-1.16-3.27.26-6.79,0,0,2.16-.67,7.08,2.63,2.06-.58,4.25-.87,6.43-.87s4.37.29,6.43.87c4.92-3.33,7.08-2.63,7.08-2.63,1.42,3.52.51,6.15.26,6.79,1.64,1.79,2.64,4.07,2.64,6.89,0,9.84-6.02,12.02-11.74,12.66.93.8,1.74,2.34,1.74,4.74,0,3.43-.03,6.18-.03,7.05,0,.67.48,1.47,1.77,1.22,10.17-3.4,17.53-13.01,17.53-24.32C51.47,11.47,39.95,0,25.73,0Z"/>
</svg>