<?xml version="1.0" encoding="UTF-8"?>
<svg id="_레이어_1" data-name="레이어 1" xmlns="http://www.w3.org/2000/svg" viewBox="0 0 50.55 50.55">
  <defs>
    <style>
      .cls-1 {
        fill: #fff;
      }
    </style>
  </defs>
  <path class="cls-1" d="m43.07,43.08h-7.49v-11.73c0-2.8-.06-6.4-3.9-6.4s-4.5,3.04-4.5,6.19v11.94h-7.49v-24.12h7.19v3.29h.1c1-1.9,3.45-3.9,7.1-3.9,7.58,0,8.99,4.99,8.99,11.49v13.24h0ZM11.24,15.66c-2.41,0-4.35-1.95-4.35-4.35s1.94-4.35,4.35-4.35,4.35,1.95,4.35,4.35-1.95,4.35-4.35,4.35Zm3.75,27.42h-7.51v-24.12h7.51v24.12ZM46.81,0H3.73C1.67,0,0,1.63,0,3.64v43.27c0,2.01,1.67,3.64,3.73,3.64h43.08c2.06,0,3.74-1.63,3.74-3.64V3.64c0-2.01-1.69-3.64-3.74-3.64h0Z"/>
</svg>