<?xml version="1.0" encoding="UTF-8"?>
<svg id="_레이어_1" data-name=" 레이어 1" xmlns="http://www.w3.org/2000/svg" viewBox="0 0 47.12 49.12">
  <defs>
    <style>
      .cls-1 {
        fill: #fff;
      }
    </style>
  </defs>
  <path class="cls-1" d="m8.12,8.61c1.53,1.24,2.1,1.15,4.97.95l27.05-1.62c.57,0,.1-.57-.09-.67l-4.49-3.25c-.86-.67-2.01-1.43-4.21-1.24l-26.19,1.91c-.95.09-1.15.57-.77.95l3.73,2.96Zm1.62,6.3v28.46c0,1.53.76,2.1,2.48,2.01l29.72-1.72c1.72-.09,1.91-1.15,1.91-2.39V13c0-1.24-.48-1.91-1.53-1.82l-31.06,1.82c-1.15.1-1.53.67-1.53,1.91h0Zm29.34,1.52c.19.86,0,1.72-.86,1.82l-1.43.29v21.01c-1.24.67-2.39,1.05-3.35,1.05-1.53,0-1.91-.48-3.06-1.91l-9.37-14.71v14.23l2.96.67s0,1.72-2.39,1.72l-6.59.38c-.19-.38,0-1.34.67-1.53l1.72-.48v-18.81l-2.38-.19c-.19-.86.29-2.1,1.62-2.2l7.07-.48,9.75,14.9v-13.18l-2.49-.28c-.19-1.05.57-1.82,1.53-1.91l6.59-.38ZM2.96,2.12L30.2.11c3.34-.29,4.21-.1,6.31,1.43l8.7,6.11c1.43,1.05,1.91,1.34,1.91,2.48v33.52c0,2.1-.76,3.34-3.44,3.53l-31.64,1.91c-2.01.1-2.96-.19-4.02-1.53l-6.4-8.31c-1.15-1.53-1.62-2.67-1.62-4.01V5.46c0-1.72.77-3.15,2.96-3.34Z"/>
</svg>